# xmcd
#
# Track frame offsets:
# 225
# 33002
# 55857
# 119487
# 154517
# 207202
#
# Disc length: 3305 seconds
#
# Revision: 3
# Processed by: cddbd v1.4PL0 Copyright (c) Steve Scherf et al.
# Submitted via: Axialis_AX_CDPlayer 2.6
#
DISCID=450ce606
DTITLE=Alexandre Borodin - Symphony No.2, In the Steppes of Central Asia, Po
DTITLE=lovetsian \nDances
DYEAR=1900
DGENRE=
TTITLE0=Allegro
TTITLE1=Scherzo Prestissimo
TTITLE2=Andante - Finale
TTITLE3=In The Steps of Central Asia
TTITLE4=Polovetsian Dances (from the Opera 'Prince Igor')
TTITLE5=MICHAEL GLINKA - Valse-Fantasie B minor
EXTD=
EXTT0=
EXTT1=
EXTT2=
EXTT3=
EXTT4=
EXTT5=
PLAYORDER=
